<?xml version="1.0" encoding="UTF-8" standalone="no"?><!DOCTYPE svg PUBLIC "-//W3C//DTD SVG 1.1//EN" "http://www.w3.org/Graphics/SVG/1.1/DTD/svg11.dtd"><svg width="100%" height="100%" viewBox="0 0 29 29" version="1.1" xmlns="http://www.w3.org/2000/svg" xmlns:xlink="http://www.w3.org/1999/xlink" xml:space="preserve" xmlns:serif="http://www.serif.com/" style="fill-rule:evenodd;clip-rule:evenodd;stroke-linejoin:round;stroke-miterlimit:2;"><path d="M29,2.5l0,16c0,1.38 -1.12,2.5 -2.5,2.5l-24,-0c-1.38,-0 -2.5,-1.12 -2.5,-2.5l-0,-16c-0,-1.38 1.12,-2.5 2.5,-2.5l24,-0c1.38,-0 2.5,1.12 2.5,2.5Zm-1,0c0,-0.828 -0.672,-1.5 -1.5,-1.5l-24,-0c-0.828,-0 -1.5,0.672 -1.5,1.5l0,16c0,0.828 0.672,1.5 1.5,1.5l24,-0c0.828,-0 1.5,-0.672 1.5,-1.5l0,-16Zm-24.5,2.5c-0.276,-0 -0.5,-0.224 -0.5,-0.5c0,-0.276 0.224,-0.5 0.5,-0.5l22,0c0.276,-0 0.5,0.224 0.5,0.5c0,0.276 -0.224,0.5 -0.5,0.5l-22,0Zm0,3c-0.276,0 -0.5,-0.224 -0.5,-0.5c-0,-0.276 0.224,-0.5 0.5,-0.5l22,-0c0.276,0 0.5,0.224 0.5,0.5c-0,0.276 -0.224,0.5 -0.5,0.5l-22,-0Zm0,9c-0.276,0 -0.5,-0.224 -0.5,-0.5c-0,-0.276 0.224,-0.5 0.5,-0.5l22,-0c0.276,0 0.5,0.224 0.5,0.5c-0,0.276 -0.224,0.5 -0.5,0.5l-22,-0Zm-0,-3c-0.276,-0 -0.5,-0.224 -0.5,-0.5c0,-0.276 0.224,-0.5 0.5,-0.5l22,0c0.276,-0 0.5,0.224 0.5,0.5c0,0.276 -0.224,0.5 -0.5,0.5l-22,0Zm-0,-3c-0.276,-0 -0.5,-0.224 -0.5,-0.5c0,-0.276 0.224,-0.5 0.5,-0.5l22,0c0.276,-0 0.5,0.224 0.5,0.5c0,0.276 -0.224,0.5 -0.5,0.5l-22,0Zm25.5,14.5l0,1c0,1.38 -1.12,2.5 -2.5,2.5l-24,0c-1.38,0 -2.5,-1.12 -2.5,-2.5l-0,-1c-0,-1.38 1.12,-2.5 2.5,-2.5l24,0c1.38,0 2.5,1.12 2.5,2.5Zm-1,0c0,-0.828 -0.672,-1.5 -1.5,-1.5l-24,0c-0.828,0 -1.5,0.672 -1.5,1.5l0,1c0,0.828 0.672,1.5 1.5,1.5l24,0c0.828,0 1.5,-0.672 1.5,-1.5l0,-1Z" style="fill:#fff;"/></svg>